<svg width="1071" height="1149" viewBox="0 0 1071 1149" fill="none" xmlns="http://www.w3.org/2000/svg">
<path d="M627.419 541.523L582.65 415.27L435.733 0H262.186L0 733.73H160.425L210.212 582.921H480.631L518.711 701.202L529.132 733.73H695.475L627.419 541.523ZM252.023 456.412L347.351 167.779L440.107 456.412H252.023Z" fill="#231F20"/>
<path d="M634.367 565.822L627.419 541.522L582.65 415.27H427.371L436.891 443.169L535.178 733.858H682.481L634.495 565.95L634.367 565.822Z" fill="#231F20"/>
<path d="M1071 415.27L820.65 1149H660.611L518.711 701.202L529.132 733.73H694.059L763.272 928.894L911.604 415.27H1071Z" fill="#231F20"/>
</svg>
