<svg width="31" height="59" viewBox="0 0 31 59" fill="none" xmlns="http://www.w3.org/2000/svg">
<path d="M28.721 15.8725C28.721 8.76324 22.9631 3 15.8605 3C8.75784 3 3 8.76324 3 15.8725V29.9908C3 37.1001 8.75784 42.8634 15.8605 42.8634C22.9631 42.8634 28.721 37.1001 28.721 29.9908V15.8725Z" stroke="#3D3D3D" stroke-width="4.15244"/>
<path d="M17.5196 11.3048C17.5196 10.3875 16.7767 9.64386 15.8602 9.64386C14.9438 9.64386 14.2008 10.3875 14.2008 11.3048V16.2878C14.2008 17.2051 14.9438 17.9487 15.8602 17.9487C16.7767 17.9487 17.5196 17.2051 17.5196 16.2878V11.3048Z" fill="#3D3D3D"/>
<path d="M20.8265 53.4458C21.4745 52.7972 21.4745 51.7455 20.8265 51.0968C20.1784 50.4482 19.1277 50.4482 18.4797 51.0968L14.9595 54.6203C14.3115 55.269 14.3115 56.3206 14.9595 56.9693C15.6076 57.6179 16.6583 57.6179 17.3063 56.9693L20.8265 53.4458Z" fill="#3D3D3D"/>
<path d="M11.226 53.4458C10.578 52.7972 10.578 51.7455 11.226 51.0968C11.8741 50.4482 12.9248 50.4482 13.5728 51.0968L17.093 54.6203C17.741 55.269 17.741 56.3206 17.093 56.9693C16.4449 57.6179 15.3942 57.6179 14.7462 56.9693L11.226 53.4458Z" fill="#3D3D3D"/>
</svg>
